<svg xmlns="http://www.w3.org/2000/svg" viewBox="0 0 990.3 990.3"><defs><style>.cls-1{fill:#d3eafa;}.cls-2{fill:#364694;}.cls-3{fill:#67c0b6;}.cls-4{fill:#fff;}</style></defs><title>logo</title><g id="Capa_2" data-name="Capa 2"><path class="cls-1" d="M1428.42,555.09A493.35,493.35,0,0,1,1390.25,746L819.35,261.46c.78-2.61.52-13.84-9.4-22.46s-25.58-7.83-35.49-6.78-38.37,8.88-44.38,10.44-3.91,6-3.91,6-43.85,5.47-51.94,6.25-10.71,9.14-10.71,9.14c1.3,7.57,12,6,12,6l50.64-6V262.5s0,1.57,2.61,3.4,19.84-1.32,22.46-1.32,5.22,1.83,18,8.88a61,61,0,0,0,10.32,4.43h0l51.51,392s-4.21,6.06,0,8.16c0,0-20.85,2.87-21.63,4.44s-42.3,63.43-42.3,65.26c0,.56.46,7.71,1.18,17.41a52.1,52.1,0,1,0,29.37,100l165,184.22q-14.59.86-29.4.87c-273.46,0-495.15-221.69-495.15-495.15S659.81,59.94,933.27,59.94,1428.42,281.63,1428.42,555.09Z" transform="translate(-438.12 -59.94)"/><path class="cls-1" d="M819.35,261.46,1390.25,746c-71.13,170.11-234.49,292.05-427.58,303.36l-165-184.22a52.11,52.11,0,0,0,37-47C855,813.47,875,809,875.48,808.83c.78-.26,11.23-2.61,11.23-3.39s25.84-18.79,25.84-18.79l29.76-4.44-.32-1.56s103.59-15.79,191.59-29.68h0s.84,5.65,5.55,5.65h20.62s-.35,3.9-.84,9.82a52.09,52.09,0,1,0,43.44,11.64c5-11.81,9.08-21.46,9.08-21.46h14.09a10.66,10.66,0,0,0,4.17-8.35V735.43c15.4-2.63,24.89-4.43,25.32-4.9,20.62-22.45-4.17-23-4.17-23L937.42,758l-.34-1.66-58.72,10.71-6.54-91.89s-2-6.25-7-3.39l-.32-.13c.65-1.56.59-3.51-2.85-4.44L810.22,278.94C819.62,274.25,818.57,264.07,819.35,261.46Z" transform="translate(-438.12 -59.94)"/><path class="cls-2" d="M1229.69,735.43c-22.57,3.85-57.87,9.52-96.12,15.55-88,13.89-191.59,29.68-191.59,29.68L937.42,758l313.43-50.54s24.79.6,4.17,23C1254.58,731,1245.09,732.8,1229.69,735.43Z" transform="translate(-438.12 -59.94)"/><path class="cls-3" d="M1229.69,735.43v12.85a10.66,10.66,0,0,1-4.17,8.35h-86.4c-4.71,0-5.55-5.65-5.55-5.65h0C1171.82,745,1207.12,739.28,1229.69,735.43Z" transform="translate(-438.12 -59.94)"/><path class="cls-2" d="M1159.74,756.63h51.69s-4.1,9.64-9.08,21.46a52.18,52.18,0,0,0-43.44-11.64C1159.39,760.54,1159.74,756.63,1159.74,756.63Z" transform="translate(-438.12 -59.94)"/><path class="cls-3" d="M1202.34,778.09a52.1,52.1,0,1,1-43.44-11.64c-1.48,18-4.19,54.45-2,56.22,2.88,2.35,4.38,5.74,11.58,6.27s14-1.3,16.62-8.88C1186.59,815.64,1195.34,794.71,1202.34,778.09Z" transform="translate(-438.12 -59.94)"/><path class="cls-2" d="M1202.34,778.09c-7,16.62-15.75,37.54-17.28,42-2.61,7.57-9.4,9.4-16.62,8.88s-8.71-3.91-11.58-6.27c-2.16-1.77.56-38.26,2-56.22a52.18,52.18,0,0,1,43.44,11.64Z" transform="translate(-438.12 -59.94)"/><path class="cls-2" d="M942,780.65l.32,1.56-29.76,4.44s-25.84,18-25.84,18.79-10.45,3.13-11.23,3.39c-.45.16-20.44,4.63-40.77,9.28.06-1,.09-1.9.09-2.85a52.12,52.12,0,0,0-66.46-50.09c-.72-9.71-1.18-16.85-1.18-17.41,0-1.83,41.5-63.7,42.3-65.26s21.63-4.44,21.63-4.44c4.21,2.08,31.87-4.08,31.87-4.08a8.09,8.09,0,0,0,1.54-2.32h0l.32.13c5-2.87,7,3.39,7,3.39l6.54,91.89,58.72-10.71.34,1.66Z" transform="translate(-438.12 -59.94)"/><path class="cls-3" d="M861.64,667.22c3.44.93,3.5,2.88,2.85,4.44h0a8.09,8.09,0,0,1-1.54,2.32s-27.67,6.17-31.87,4.08,0-8.16,0-8.16l.43,3.19Z" transform="translate(-438.12 -59.94)"/><path class="cls-2" d="M810.22,278.94l51.42,388.28L831.5,673.1l-.43-3.19-51.51-392h0C790.71,281.58,803.14,282.48,810.22,278.94Z" transform="translate(-438.12 -59.94)"/><path class="cls-2" d="M834.79,815.26c0,1,0,1.9-.09,2.85-15.31,3.5-30.81,7.1-38.32,9-17.48,4.44-19.57-.26-21.92-2.88-1.63-1.8-4.52-37.05-6.13-59.06a52.12,52.12,0,0,1,66.46,50.09Z" transform="translate(-438.12 -59.94)"/><path class="cls-3" d="M834.7,818.11a52.09,52.09,0,1,1-66.38-52.94c1.61,22,4.5,57.26,6.13,59.06,2.35,2.62,4.44,7.32,21.92,2.88C803.89,825.21,819.39,821.61,834.7,818.11Z" transform="translate(-438.12 -59.94)"/><path class="cls-3" d="M810,239c9.92,8.62,10.18,19.85,9.4,22.46s.27,12.79-9.13,17.48c-7.08,3.54-19.51,2.63-30.66-1.06a61,61,0,0,1-10.32-4.43c-12.79-7-15.4-8.88-18-8.88s-19.84,3.13-22.46,1.32-2.61-3.4-2.61-3.4V248.67s-2.08-4.44,3.91-6,34.46-9.4,44.38-10.44S800,230.39,810,239Z" transform="translate(-438.12 -59.94)"/><path class="cls-2" d="M726.16,262.5v1.57l-50.64,6s-10.71,1.57-12-6c0,0,2.61-8.35,10.71-9.14s51.94-6.25,51.94-6.25Z" transform="translate(-438.12 -59.94)"/></g><g id="Ruedas"><path class="cls-4" d="M819.89,722.53l20.4,19.74-11.69,13.61,13.82,11.61-16.7,24-2.49-29.39-9,10.63-3.64-3.28,11.21-13.3-13.28-11.2,2.93-3.72,10.74,9Zm14.14,20-8.3-7.93,1.34,15.81Zm-4.64,35.26,6.81-9.66L828,761.43Z" transform="translate(-438.12 -59.94)"/></g><g id="shadows"><path class="cls-1" d="M2033,819" transform="translate(-438.12 -59.94)"/></g></svg>