<svg width="1040" height="1040" viewBox="0 0 1040 1040" fill="none" xmlns="http://www.w3.org/2000/svg">
<circle cx="520" cy="520" r="520" fill="#D3EAFA"/>
<path d="M837.57 701.49C815 705.34 779.7 711.01 741.45 717.04C653.45 730.93 549.86 746.72 549.86 746.72L545.3 724.06L858.73 673.52C858.73 673.52 883.52 674.12 862.9 696.52C862.46 697.06 852.97 698.86 837.57 701.49Z" fill="#364694"/>
<path d="M837.57 701.49V714.34C837.554 715.957 837.17 717.549 836.447 718.996C835.725 720.442 834.683 721.706 833.4 722.69H747C742.29 722.69 741.45 717.04 741.45 717.04C779.7 711.06 815 705.34 837.57 701.49Z" fill="#67C0B6"/>
<path d="M767.62 722.69H819.31C819.31 722.69 815.21 732.33 810.23 744.15C804.315 739.094 797.345 735.424 789.828 733.41C782.312 731.396 774.441 731.088 766.79 732.51C767.27 726.6 767.62 722.69 767.62 722.69Z" fill="#364694"/>
<path d="M810.22 744.15C819.194 751.834 825.291 762.339 827.509 773.943C829.728 785.547 827.936 797.561 822.429 808.013C816.922 818.465 808.026 826.735 797.2 831.466C786.375 836.197 774.263 837.109 762.851 834.051C751.44 830.993 741.406 824.147 734.397 814.637C727.387 805.127 723.818 793.517 724.275 781.712C724.732 769.906 729.187 758.607 736.91 749.667C744.634 740.727 755.166 734.677 766.78 732.51C765.3 750.51 762.59 786.96 764.78 788.73C767.66 791.08 769.16 794.47 776.36 795C783.56 795.53 790.36 793.7 792.98 786.12C794.47 781.7 803.22 760.77 810.22 744.15Z" fill="#67C0B6"/>
<path d="M810.22 744.15C803.22 760.77 794.47 781.69 792.94 786.15C790.33 793.72 783.54 795.55 776.32 795.03C769.1 794.51 767.61 791.12 764.74 788.76C762.58 786.99 765.3 750.5 766.74 732.54C774.391 731.118 782.262 731.426 789.778 733.44C797.295 735.454 804.265 739.124 810.18 744.18L810.22 744.15Z" fill="#364694"/>
<path d="M549.88 746.71L550.2 748.27L520.44 752.71C520.44 752.71 494.6 770.71 494.6 771.5C494.6 772.29 484.15 774.63 483.37 774.89C482.92 775.05 462.93 779.52 442.6 784.17C442.66 783.17 442.69 782.27 442.69 781.32C442.687 773.252 440.812 765.296 437.211 758.076C433.61 750.857 428.383 744.572 421.94 739.716C415.498 734.861 408.016 731.567 400.084 730.094C392.152 728.622 383.986 729.01 376.23 731.23C375.51 721.52 375.05 714.38 375.05 713.82C375.05 711.99 416.55 650.12 417.35 648.56C418.15 647 438.98 644.12 438.98 644.12C443.19 646.2 470.85 640.04 470.85 640.04C471.494 639.361 472.015 638.576 472.39 637.72L472.71 637.85C477.71 634.98 479.71 641.24 479.71 641.24L486.25 733.13L544.97 722.42L545.31 724.08L549.88 746.71Z" fill="#364694"/>
<path d="M469.52 633.28C472.96 634.21 473.02 636.16 472.37 637.72C471.995 638.577 471.474 639.361 470.83 640.04C470.83 640.04 443.16 646.21 438.96 644.12C434.76 642.03 438.96 635.96 438.96 635.96L439.39 639.15L469.52 633.28Z" fill="#67C0B6"/>
<path d="M418.1 245L469.52 633.28L439.38 639.16L438.95 635.97L387.44 243.97C398.59 247.64 411.02 248.54 418.1 245Z" fill="#364694"/>
<path d="M442.67 781.32C442.67 782.32 442.67 783.22 442.58 784.17C427.27 787.67 411.77 791.27 404.26 793.17C386.78 797.61 384.69 792.91 382.34 790.29C380.71 788.49 377.82 753.24 376.21 731.23C383.966 729.01 392.132 728.621 400.064 730.094C407.996 731.567 415.478 734.861 421.92 739.716C428.363 744.572 433.59 750.857 437.191 758.076C440.792 765.296 442.667 773.252 442.67 781.32Z" fill="#364694"/>
<path d="M442.58 784.17C442.053 793.717 438.909 802.934 433.491 810.813C428.074 818.691 420.592 824.927 411.867 828.836C403.141 832.745 393.508 834.178 384.023 832.976C374.537 831.774 365.565 827.985 358.09 822.023C350.615 816.062 344.925 808.158 341.643 799.177C338.362 790.197 337.615 780.486 339.485 771.11C341.356 761.733 345.771 753.052 352.247 746.018C358.723 738.984 367.01 733.867 376.2 731.23C377.81 753.23 380.7 788.49 382.33 790.29C384.68 792.91 386.77 797.61 404.25 793.17C411.77 791.27 427.27 787.67 442.58 784.17Z" fill="#67C0B6"/>
<path d="M417.88 205.06C427.8 213.68 428.06 224.91 427.28 227.52C426.5 230.13 427.55 240.31 418.15 245C411.07 248.54 398.64 247.63 387.49 243.94C383.921 242.784 380.466 241.301 377.17 239.51C364.38 232.51 361.77 230.63 359.17 230.63C356.57 230.63 339.33 233.76 336.71 231.95C334.09 230.14 334.1 228.55 334.1 228.55V214.73C334.1 214.73 332.02 210.29 338.01 208.73C344 207.17 372.47 199.33 382.39 198.29C392.31 197.25 407.88 196.45 417.88 205.06Z" fill="#67C0B6"/>
<path d="M334.04 228.56V230.13L283.4 236.13C283.4 236.13 272.69 237.7 271.4 230.13C271.4 230.13 274.01 221.78 282.11 220.99C290.21 220.2 334.05 214.74 334.05 214.74L334.04 228.56Z" fill="#364694"/>
<path d="M427.77 688.59L448.17 708.33L436.48 721.94L450.3 733.55L433.6 757.55L431.11 728.16L422.11 738.79L418.47 735.51L429.68 722.21L416.4 711.01L419.33 707.29L430.07 716.29L427.77 688.59ZM441.91 708.59L433.61 700.66L434.95 716.47L441.91 708.59ZM437.27 743.85L444.08 734.19L435.88 727.49L437.27 743.85Z" fill="white"/>
</svg>
